<svg width="1444" height="870" viewBox="0 0 1444 870" fill="none" xmlns="http://www.w3.org/2000/svg">
<g style="mix-blend-mode:multiply" opacity="0.3">
<path d="M921.319 75.026V420.646L1017.35 516.679V829.787H1138.39H1289.95V788.273H1441.5" stroke="#2FB2FF" stroke-width="2" stroke-linecap="round"/>
</g>
<g style="mix-blend-mode:multiply" opacity="0.3">
<path d="M1.00035 176.061C0.44787 176.061 2.41494e-08 175.613 0 175.061C-2.41496e-08 174.508 0.44787 174.06 1.00035 174.06L1.00035 176.061ZM286.599 175.061L286.599 174.06L286.97 174.06L287.252 174.302L286.599 175.061ZM572.698 421.146L572.698 422.146L572.327 422.146L572.046 421.904L572.698 421.146ZM1085.38 420.145L1086.38 420.145L1086.38 422.146L1085.38 422.146L1085.38 420.145ZM1.00035 175.061L1.00035 174.06L286.599 174.06L286.599 175.061L286.599 176.061L1.00035 176.061L1.00035 175.061ZM286.599 175.061L287.252 174.302L573.351 420.387L572.698 421.146L572.046 421.904L285.947 175.819L286.599 175.061ZM572.698 421.146L572.698 420.145L1085.38 420.145L1085.38 421.146L1085.38 422.146L572.698 422.146L572.698 421.146Z" fill="#2FB2FF"/>
</g>
<g style="mix-blend-mode:multiply" opacity="0.3">
<path d="M1085.38 576.2C1085.93 576.2 1086.38 575.752 1086.38 575.199C1086.38 574.647 1085.93 574.199 1085.38 574.199L1085.38 576.2ZM799.777 575.199L799.777 574.199L799.406 574.199L799.125 574.441L799.777 575.199ZM513.678 821.284L513.678 822.285L514.049 822.285L514.33 822.043L513.678 821.284ZM1.00034 820.284L-1.0713e-05 820.284L-1.08005e-05 822.285L1.00034 822.285L1.00034 820.284ZM1085.38 575.199L1085.38 574.199L799.777 574.199L799.777 575.199L799.777 576.2L1085.38 576.2L1085.38 575.199ZM799.777 575.199L799.125 574.441L513.026 820.526L513.678 821.284L514.33 822.043L800.429 575.958L799.777 575.199ZM513.678 821.284L513.678 820.284L1.00034 820.284L1.00034 821.284L1.00034 822.285L513.678 822.285L513.678 821.284Z" fill="#2FB2FF"/>
</g>
<g style="mix-blend-mode:multiply" opacity="0.3">
<path d="M1443 224.578C1443.55 224.578 1444 224.13 1444 223.577C1444 223.025 1443.55 222.577 1443 222.577V224.578ZM1151.9 223.577V222.577H1150.9V223.577H1151.9ZM1151.9 475.165H1150.9V475.614L1151.23 475.912L1151.9 475.165ZM1241.43 554.692H1242.43V554.243L1242.09 553.944L1241.43 554.692ZM1240.43 827.787V828.787H1242.43V827.787H1240.43ZM1443 223.577V222.577H1151.9V223.577V224.578H1443V223.577ZM1151.9 223.577H1150.9V475.165H1151.9H1152.9V223.577H1151.9ZM1151.9 475.165L1151.23 475.912L1240.77 555.44L1241.43 554.692L1242.09 553.944L1152.56 474.417L1151.9 475.165ZM1241.43 554.692H1240.43V827.787H1241.43H1242.43V554.692H1241.43Z" fill="#2FB2FF"/>
</g>
<rect x="101.035" y="408.141" width="8.00277" height="8.00277" fill="#FF003C"/>
<rect x="913.316" y="481.167" width="8.00277" height="8.00277" fill="#FF003C"/>
<rect x="735.255" y="700.242" width="8.00277" height="8.00277" fill="#FF003C"/>
<rect x="821.284" y="318.11" width="8.00277" height="8.00277" fill="#FF003C"/>
<rect x="241.083" y="788.273" width="8.00277" height="8.00277" fill="#FF003C"/>
<rect x="962.333" y="855.296" width="8.00277" height="8.00277" fill="#FF003C"/>
<rect x="1317.46" y="448.155" width="8.00277" height="8.00277" fill="#FF003C"/>
<rect x="61.0211" y="662.229" width="8.00277" height="8.00277" fill="#FF003C"/>
<rect x="1083.38" y="682.236" width="8.00277" height="8.00277" fill="#FF003C"/>
<rect x="743.257" y="95.0329" width="8.00277" height="8.00277" fill="#FF003C"/>
<rect x="301.104" y="39.0135" width="8.00277" height="8.00277" fill="#FF003C"/>
<rect x="24.0083" y="166.057" width="8.00277" height="8.00277" fill="#FF003C"/>
<rect x="309.107" y="849.294" width="18.0062" height="20.257" fill="#FF003C"/>
<rect x="1424.49" y="204.071" width="18.0062" height="20.257" fill="#FF003C"/>
<rect x="1088.38" y="361.125" width="18.0062" height="20.257" fill="#FF003C"/>
<rect x="1039.36" y="796.276" width="8.00277" height="8.00277" fill="#FF003C"/>
</svg>
