<svg width="1442" height="832" viewBox="0 0 1442 832" fill="none" xmlns="http://www.w3.org/2000/svg">
<g style="mix-blend-mode:multiply" opacity="0.3">
<path d="M921 611.5V436L1017 340V27" stroke="#2FB2FF" stroke-width="2" stroke-linecap="round"/>
</g>
<g style="mix-blend-mode:multiply" opacity="0.3">
<path d="M1 138C0.447715 138 2.41411e-08 137.552 0 137C-2.41411e-08 136.448 0.447715 136 1 136L1 138ZM286.5 137L286.5 136L286.871 136L287.152 136.242L286.5 137ZM572.5 383L572.5 384L572.129 384L571.848 383.758L572.5 383ZM1085 382L1086 382L1086 384L1085 384L1085 382ZM1 137L1 136L286.5 136L286.5 137L286.5 138L1 138L1 137ZM286.5 137L287.152 136.242L573.152 382.242L572.5 383L571.848 383.758L285.848 137.758L286.5 137ZM572.5 383L572.5 382L1085 382L1085 383L1085 384L572.5 384L572.5 383Z" fill="#2FB2FF"/>
</g>
<g style="mix-blend-mode:multiply" opacity="0.3">
<path d="M3.99999 1C3.99999 0.447723 3.55227 -2.41411e-08 2.99999 0C2.4477 2.41411e-08 1.99999 0.447723 1.99999 1L3.99999 1ZM3 292L2 292L2 293L3 293L3 292ZM605.5 292L605.5 293L605.914 293L606.207 292.707L605.5 292ZM745 152.5L745 151.5L744.586 151.5L744.293 151.793L745 152.5ZM1018 153.5L1019 153.5L1019 151.5L1018 151.5L1018 153.5ZM2.99999 1L1.99999 1L2 292L3 292L4 292L3.99999 1L2.99999 1ZM3 292L3 293L605.5 293L605.5 292L605.5 291L3 291L3 292ZM605.5 292L606.207 292.707L745.707 153.207L745 152.5L744.293 151.793L604.793 291.293L605.5 292ZM745 152.5L745 153.5L1018 153.5L1018 152.5L1018 151.5L745 151.5L745 152.5Z" fill="#2FB2FF"/>
</g>
<rect x="101" y="370" width="8" height="8" fill="#FF003C"/>
<rect x="913" y="443" width="8" height="8" fill="#FF003C"/>
<rect x="735" y="662" width="8" height="8" fill="#FF003C"/>
<rect x="241" y="750" width="8" height="8" fill="#FF003C"/>
<rect x="727" y="559" width="8" height="8" fill="#FF003C"/>
<rect x="1317" y="410" width="8" height="8" fill="#FF003C"/>
<rect x="61" y="624" width="8" height="8" fill="#FF003C"/>
<rect x="1085" y="139" width="8" height="8" fill="#FF003C"/>
<rect x="743" y="57" width="8" height="8" fill="#FF003C"/>
<rect x="301" y="1" width="8" height="8" fill="#FF003C"/>
<rect x="24" y="128" width="8" height="8" fill="#FF003C"/>
<rect x="309" y="811" width="18" height="20.25" fill="#FF003C"/>
<rect x="1424" y="166" width="18" height="20.25" fill="#FF003C"/>
<rect x="69" y="557" width="18" height="20.25" fill="#FF003C"/>
<rect x="1039" y="758" width="8" height="8" fill="#FF003C"/>
<path fill-rule="evenodd" clip-rule="evenodd" d="M1441 611H1V600.262H80.7715L87.649 609.878L87.6633 609.853L87.6805 609.878L99.6565 591.882H109.347L115.087 600.138H323.498V600.141L391.7 600.182L393.246 602.397L390.755 605.974H395.747L393.246 602.397L394.82 600.138H397.702L404.491 609.878L404.5 609.866L404.505 609.878L422.543 584L432.114 597.715L555.985 597.756L558.153 594.649L564.64 603.96L568.967 597.756L624.664 597.715L630.092 605.503H655.317L664.811 591.882H668.568L692.003 592.03L696.627 585.396L703.562 595.349L707.082 600.417H768.367L770.846 603.964L766.724 609.878H774.977L770.846 603.964L773.319 600.417H882.522L889.399 609.878L889.413 609.853L889.43 609.878L901.406 591.882H911.097L916.836 600.138H1125.25V600.164L1155.95 600.182L1157.5 602.397L1155.01 605.974H1160L1157.5 602.397L1159.07 600.138H1161.95L1168.74 609.878L1168.75 609.866L1168.76 609.878L1186.79 584L1196.36 597.715L1282.73 597.756L1284.9 594.649L1291.39 603.96L1295.72 597.756L1351.41 597.715L1356.84 605.503H1382.07L1391.56 591.882H1395.32L1418.75 592.03L1423.38 585.396L1430.31 595.349L1433.83 600.282H1441V611ZM40.0202 604.288H36.1233V609.878H40.0202V604.288ZM53.02 604.288H51.7217V609.878H53.02V604.288ZM62.1115 604.288H60.8132V609.878H62.1115V604.288ZM64.0825 604.288H62.782V609.878H64.0825V604.288ZM668.487 597.261H667.187V599.123H668.487V597.261ZM668.487 600.989H667.187V602.851H668.487V600.989ZM678.564 597.261H677.262V602.851H678.564V597.261ZM683.544 597.261H682.243V599.123H683.544V597.261ZM841.77 604.288H837.873V609.878H841.77V604.288ZM854.77 604.288H853.472V609.878H854.77V604.288ZM863.862 604.288H862.564V609.878H863.862V604.288ZM865.833 604.288H864.532V609.878H865.833V604.288ZM1395.24 597.261H1393.94V599.123H1395.24V597.261ZM1395.24 600.989H1393.94V602.851H1395.24V600.989ZM1405.31 597.261H1404.01V602.851H1405.31V597.261ZM1410.29 597.261H1408.99V599.123H1410.29V597.261ZM561.231 590.246L558.153 594.649L555.083 590.246H561.231ZM768.347 600.387H773.339L773.319 600.417H768.367L768.347 600.387ZM1287.98 590.246L1284.9 594.649L1281.83 590.246H1287.98Z" fill="#121211"/>
</svg>
