<svg width="337" height="77" viewBox="0 0 337 77" fill="none" xmlns="http://www.w3.org/2000/svg">
<path d="M331.92 4.50293H336.268V49.3389L305.985 76.4531L306.596 77H181.685V69.7529H154.583V77H20.0752L0 59.335V32.4199H3.01758V29.7188H3.0166V27.918H3.01758V25.2158H0V0H331.92V4.50293ZM336.268 59.335L316.192 77H311.063L336.268 54.4336V59.335ZM244.414 76.5479H247.432V72.0449H244.414V76.5479ZM248.438 76.5479H249.442V74.7471H248.438V76.5479ZM250.449 76.5479H253.467V72.0449H250.449V76.5479ZM2.01172 29.7188H0V27.918H2.01172V29.7188ZM333.932 2.70215H336.268V3.60156H332.926V0H333.932V2.70215Z" fill="#8BE66E"/>
</svg>
