<svg width="337" height="77" viewBox="0 0 337 77" fill="none" xmlns="http://www.w3.org/2000/svg">
<path d="M330.807 4.50293H335.818V3.60254L331.809 3.60156V0H332.812V2.70215H335.818V0H336.268V49.3242L335.712 48.8252L304.959 76.4531L305.567 77H181.685V69.7529H154.583V77H20.0752L0 59.335V32.4199H3.00781V25.2158H0V0H330.807V4.50293ZM336.268 59.335L316.192 77H310.021L336.268 53.4199V59.335ZM243.594 76.5479H246.601V72.0449H243.594V76.5479ZM247.604 76.5479H248.606V74.7471H247.604V76.5479ZM249.608 76.5479H252.615V72.0449H249.608V76.5479ZM2.00488 29.7188H0V27.918H2.00488V29.7188Z" fill="#FF003C"/>
</svg>
